Coordinates
version=1
nRows=11
nColumns=40
inDegrees=yes

Units are S.I. units (second, meters, Newtons, ...)
Angles are in degrees.

endheader
time	pelvis_tilt	pelvis_list	pelvis_rotation	pelvis_tx	pelvis_ty	pelvis_tz	hip_flexion_r	hip_adduction_r	hip_rotation_r	knee_angle_r	knee_angle_r_beta	ankle_angle_r	subtalar_angle_r	mtp_angle_r	hip_flexion_l	hip_adduction_l	hip_rotation_l	knee_angle_l	knee_angle_l_beta	ankle_angle_l	subtalar_angle_l	mtp_angle_l	lumbar_extension	lumbar_bending	lumbar_rotation	arm_flex_r	arm_add_r	arm_rot_r	elbow_flex_r	pro_sup_r	wrist_flex_r	wrist_dev_r	arm_flex_l	arm_add_l	arm_rot_l	elbow_flex_l	pro_sup_l	wrist_flex_l	wrist_dev_l
     14.19000000	     -6.03782859	     -5.55308684	      1.89927494	      0.82099970	      0.92440648	      0.45901226	      4.88010071	      0.09937617	    -13.52104004	     29.24817701	     29.24817701	     14.17040189	      1.52233999	     -9.97513904	     27.22499563	     -5.60694518	     -0.79623335	     23.82101464	     23.82101464	      6.95488873	    -10.81560000	      3.40981156	     -8.13002881	      5.97014411	      3.99401244	     27.72122646	    -15.03320704	      5.89197979	     92.36189930	     44.68054661	      0.00000000	      0.00000000	     -7.58998698	     -8.33363929	     -1.54228913	     36.39487792	     45.43415830	      0.00000000	      0.00000000
     14.20314286	     -6.05076532	     -5.49964108	      1.54252237	      0.82070347	      0.92486427	      0.45710347	      6.62719669	     -0.53229483	    -12.82936152	     33.02066235	     33.02066235	     12.95983689	     -0.22244803	    -10.94470349	     26.72488519	     -5.62825077	     -1.29435961	     23.86712019	     23.86712019	      7.50115283	    -10.52437645	      2.96656311	     -8.18429967	      5.80094824	      3.98498536	     25.98228328	    -15.13134626	      6.13302700	     90.46797976	     44.73054628	      0.00000000	      0.00000000	     -6.62071060	     -8.62878285	     -1.66949578	     36.85004050	     45.46864613	      0.00000000	      0.00000000
     14.21628571	     -6.05794012	     -5.50742806	      1.23214223	      0.82033164	      0.92512500	      0.45540136	      8.40231293	     -0.89723787	    -11.83925978	     36.56198515	     36.56198515	     10.33437520	     -3.36236266	    -14.84714212	     26.29200325	     -5.75095352	     -1.92799367	     23.99391454	     23.99391454	      7.82909707	    -10.05883176	      1.92459296	     -8.14183961	      5.66413890	      3.33320292	     25.01837671	    -14.59665059	      6.76598679	     86.57760833	     44.86752560	      0.00000000	      0.00000000	     -6.05016400	     -8.96894066	     -2.14556586	     37.61101715	     45.58461195	      0.00000000	      0.00000000
     14.22942857	     -6.02929215	     -5.41181808	      0.91861568	      0.81981550	      0.92521162	      0.45367191	     10.45037626	     -1.46183537	    -11.05563298	     40.71310384	     40.71310384	      8.99648904	     -5.48925163	    -14.72287835	     25.84281257	     -5.74270848	     -2.51307881	     24.17784502	     24.17784502	      8.33984174	     -9.67768150	      1.42881756	     -8.21606177	      5.43385572	      3.29110597	     23.19283047	    -14.69803349	      6.91330495	     84.48283365	     44.93005885	      0.00000000	      0.00000000	     -4.92331361	     -9.32102214	     -2.26913809	     37.97722250	     45.62564713	      0.00000000	      0.00000000
     14.24257143	     -5.98567731	     -5.18482025	      0.63935834	      0.81919083	      0.92516476	      0.45188398	     12.56858104	     -2.21343913	    -10.45732075	     44.86818575	     44.86818575	      7.65378226	     -7.26066740	    -14.45554614	     25.36491241	     -5.55816866	     -3.05035895	     24.32587585	     24.32587585	      8.82205296	     -9.41328389	      1.03912449	     -8.34444877	      5.06899293	      3.09782681	     21.28320201	    -14.77821502	      7.16528254	     82.68910420	     44.97443394	      0.00000000	      0.00000000	     -3.78912328	     -9.74275499	     -2.35544315	     38.33266142	     45.65585764	      0.00000000	      0.00000000
     14.25571429	     -5.91157847	     -5.12818402	      0.41504119	      0.81842818	      0.92516608	      0.45029978	     14.71087396	     -2.57040159	     -9.69286373	     48.87977088	     48.87977088	      6.77107945	     -9.28396930	    -12.03221963	     24.96457156	     -5.60838779	     -3.66007208	     24.61829376	     24.61829376	      9.26729510	     -8.76850062	      0.39692497	     -8.41346073	      4.91560718	      2.66634832	     19.96776373	    -14.28404058	      7.00080131	     78.60498390	     45.11500635	      0.00000000	      0.00000000	     -2.49332977	    -10.17747983	     -2.09580956	     38.13010674	     45.66104590	      0.00000000	      0.00000000
     14.26885714	     -5.82663721	     -4.97520286	      0.20310051	      0.81766937	      0.92505507	      0.44865500	     16.86404481	     -3.13224284	     -9.19891714	     52.78210556	     52.78210556	      6.63015111	    -10.32784739	     -8.34525444	     24.49025121	     -5.46409369	     -4.02635106	     24.80260182	     24.80260182	      9.78810367	     -8.61289981	      0.06492229	     -8.49634221	      4.68301097	      2.32812383	     18.30957391	    -14.23414248	      7.26692235	     75.46141262	     45.20783336	      0.00000000	      0.00000000	     -1.22390911	    -10.69265249	     -1.82150243	     38.14582482	     45.68740403	      0.00000000	      0.00000000
     14.28200000	     -5.73632396	     -4.78221739	      0.02271556	      0.81678285	      0.92501760	      0.44700941	     18.88413945	     -3.65865941	     -8.69953409	     56.05861565	     56.05861565	      5.54799607	    -12.00081635	     -7.66169754	     24.00662789	     -5.26228385	     -4.36004756	     24.94615379	     24.94615379	     10.21858971	     -8.41132982	     -0.21043223	     -8.67167677	      4.44527250	      2.18437353	     16.20409606	    -14.52532383	      7.48440348	     73.50492410	     45.25611835	      0.00000000	      0.00000000	      0.11515302	    -11.11346950	     -1.87297352	     38.48207974	     45.71677276	      0.00000000	      0.00000000
     14.29514286	     -5.63761882	     -4.72896058	     -0.14759239	      0.81583658	      0.92520081	      0.44552649	     20.79373390	     -3.95950319	     -8.28401351	     58.83720956	     58.83720956	      4.80619153	    -13.49253165	     -6.36690174	     23.50971816	     -5.22482840	     -4.74581090	     25.05825322	     25.05825322	     10.65980773	     -8.15431877	     -0.47568355	     -8.86695342	      4.38518578	      2.11723897	     14.23384468	    -14.77854174	      7.49793027	     70.54088095	     45.34526430	      0.00000000	      0.00000000	      1.70380082	    -11.43746621	     -1.74371011	     38.50158685	     45.72873291	      0.00000000	      0.00000000
     14.30828571	     -5.40080223	     -4.79655462	     -0.24487054	      0.81498761	      0.92576041	      0.44415952	     22.42603282	     -4.13214622	     -8.05689302	     61.14802847	     61.14802847	      4.90706309	    -14.34446489	     -3.61776336	     22.87157154	     -5.31617589	     -5.04765025	     25.17715113	     25.17715113	     11.12631435	     -7.72912141	     -0.70315485	     -9.03610301	      4.45205706	      1.99453161	     12.81917377	    -14.52129135	      7.04347067	     65.53065186	     45.51940298	      0.00000000	      0.00000000	      3.66909995	    -11.80457521	     -1.12012442	     37.46797463	     45.69221906	      0.00000000	      0.00000000
     14.32142857	     -5.28399661	     -4.71814046	     -0.37873537	      0.81399534	      0.92630977	      0.44285038	     24.17869482	     -4.44670431	     -7.76321673	     63.07832526	     63.07832526	      5.40548662	    -14.57499721	     -0.54324661	     22.23953309	     -5.20904425	     -5.29818682	     25.06480564	     25.06480564	     11.58930337	     -7.47341349	     -0.72791309	     -9.17644162	      4.39098322	      1.48932174	     11.60308369	    -14.00791371	      6.45640777	     60.92995108	     45.67674475	      0.00000000	      0.00000000	      5.41845761	    -12.28898489	     -0.24321974	     36.20219346	     45.63605322	      0.00000000	      0.00000000
